<?xml version="1.0" standalone="no"?>
<!DOCTYPE svg PUBLIC "-//W3C//DTD SVG 1.1//EN" "http://www.w3.org/Graphics/SVG/1.1/DTD/svg11.dtd">

<svg t="1545445742603" class="icon" style="" viewBox="0 0 1024 1024" version="1.1" xmlns="http://www.w3.org/2000/svg"
  p-id="916" xmlns:xlink="http://www.w3.org/1999/xlink" width="200" height="200">
  <defs>
    <style type="text/css"></style>
  </defs>
  <path d="M512 0c282.76736 0 512 229.23264 512 512s-229.23264 512-512 512S0 794.76736 0 512 229.23264 0 512 0z m0 0c282.76736 0 512 229.23264 512 512s-229.23264 512-512 512S0 794.76736 0 512 229.23264 0 512 0z"
    fill="#2EA9D3" p-id="917"></path>
  <path d="M512 20.48C387.33824 20.48 273.11104 65.0752 184.32 139.13088V819.2l40.96-30.72 40.96 30.72 40.96-30.72 40.96 30.72 40.96-30.72 40.96 30.72 40.96-30.72 40.96 30.72 40.96-30.72 40.96 30.72 40.96-30.72 40.96 30.72 40.96-30.72 40.96 30.72 40.96-30.72 40.96 30.72V139.13088C750.87872 65.0752 636.66176 20.48 512 20.48z"
    fill="#2998BD" p-id="918"></path>
  <path d="M512 0C387.33824 0 273.11104 44.5952 184.32 118.65088V798.72l40.96-30.72 40.96 30.72 40.96-30.72 40.96 30.72 40.96-30.72 40.96 30.72 40.96-30.72 40.96 30.72 40.96-30.72 40.96 30.72 40.96-30.72 40.96 30.72 40.96-30.72 40.96 30.72 40.96-30.72 40.96 30.72V118.65088C750.87872 44.5952 636.66176 0 512 0z"
    fill="#F2F1EF" p-id="919"></path>
  <path d="M544.68608 628.96128v-16.85504c5.43744 0.63488 8.81664 3.42016 13.03552 3.42016 4.95616 0 8.09984-4.44416 8.09984-9.37984 0-9.13408-13.88544-12.16512-21.13536-12.43136v-3.92192c0-3.4304 0-5.95968-3.25632-5.95968s-3.25632 2.52928-3.25632 5.95968v3.92192c-14.35648 1.64864-25.94816 12.29824-25.94816 28.52864 0 18.13504 14.4896 21.43232 25.94816 24.96512v21.17632c-7.00416-0.768-13.03552-4.82304-18.21696-4.82304-4.95616 0-8.09984 4.05504-8.09984 9.00096 0 10.89536 16.5376 13.69088 26.3168 13.93664v3.93216c0 2.9184 0 5.95968 3.25632 5.95968s3.25632-3.04128 3.25632-5.95968v-4.05504c15.104-1.26976 27.42272-12.16512 27.42272-29.04064 0-20.3776-15.69792-24.81152-27.42272-28.37504z m-6.51264-2.28352c-3.86048-1.51552-6.38976-3.42016-6.38976-6.7072 0-4.05504 2.77504-6.71744 6.38976-7.7312v14.4384z m6.51264 41.20576v-18.50368c4.59776 1.64864 7.86432 4.05504 7.86432 8.2432 0 4.93568-2.78528 9.00096-7.86432 10.26048z m89.02656 0.63488h-22.08768c10.27072-13.55776 28.9792-31.05792 28.9792-48.68096 0-16.09728-11.95008-26.368-26.80832-26.368-14.83776 0-28.37504 12.81024-28.37504 28.78464 0 4.93568 3.0208 9.24672 8.8064 9.24672 11.60192 0 4.95616-20.54144 18.8416-20.54144 4.94592 0 8.704 4.56704 8.704 9.76896 0 4.5568-2.05824 8.48896-4.22912 11.78624-9.17504 13.93664-20.04992 25.35424-30.07488 37.89824-1.19808 1.51552-2.77504 3.80928-2.77504 6.47168 0 5.82656 4.096 8.35584 9.41056 8.35584h40.32512c4.58752 0 8.69376-2.52928 8.69376-8.35584s-4.096-8.36608-9.41056-8.36608z m68.25984-32.45056c6.63552-4.44416 9.90208-11.40736 9.90208-19.4048 0-9.89184-8.32512-23.20384-25.72288-23.20384-13.40416 0-26.3168 10.6496-26.3168 20.54144 0 4.68992 2.89792 9.37984 7.86432 9.37984 8.20224 0 6.63552-12.43136 18.10432-12.43136 5.43744 0 8.704 3.67616 8.704 8.4992 0 14.06976-17.152 5.0688-17.152 18.3808 0 14.96064 20.5312 1.90464 20.5312 19.65056 0 6.71744-5.0688 11.78624-11.34592 11.78624-13.64992 0-11.71456-14.82752-19.92704-14.82752-4.34176 0-9.28768 3.55328-9.28768 8.48896 0 10.02496 11.1104 23.83872 28.9792 23.83872 17.14176 0 30.42304-12.81024 30.42304-28.01664-0.03072-10.00448-6.06208-18.50368-14.75584-22.6816z"
    fill="#E4665C" p-id="920"></path>
  <path d="M286.72 491.52h450.56v20.48H286.72v-20.48z" fill="#D9D8D7" p-id="921"></path>
  <path d="M286.72 235.25376h368.64v-40.92928H286.72v40.92928z m286.72 41.00096H286.72v40.92928h286.72v-40.92928zM286.72 399.09376h348.16v-40.91904H286.72v40.91904z m409.6-204.72832v41.1648h40.96v-41.1648h-40.96z m0 123.0848h40.96v-41.1648h-40.96v41.1648z m0 81.92h40.96v-41.1648h-40.96v41.1648z"
    fill="#868686" p-id="922"></path>
  <path d="M378.88 17.58208a506.83904 506.83904 0 0 0-40.96 12.82048V112.64h40.96V17.58208z m40.96-9.14432a503.1936 503.1936 0 0 0-20.48 4.1472V112.64h20.48V8.43776zM317.44 38.36928a507.96544 507.96544 0 0 0-30.72 13.81376V112.64h30.72V38.36928zM471.04 1.78176c-10.32192 0.8192-20.57216 1.90464-30.72 3.31776V112.64h30.72V1.78176zM512 0c-6.87104 0-13.68064 0.24576-20.48 0.52224V112.64h20.48V0z m184.32 34.33472a517.75488 517.75488 0 0 0-20.48-7.39328V112.64h20.48V34.33472z m20.48 8.38656V112.64h20.48V52.18304a515.71712 515.71712 0 0 0-20.48-9.46176zM573.44 3.79904a508.47744 508.47744 0 0 0-40.96-3.2768V112.64h40.96V3.79904z m40.97024 6.46144C607.63136 8.88832 600.79104 7.70048 593.92 6.6048V112.64h20.49024V10.26048zM655.36 20.49024a501.51424 501.51424 0 0 0-20.46976-5.55008V112.64H655.36V20.49024z"
    fill="#E4665C" p-id="923"></path>
</svg>