<?xml version="1.0" standalone="no"?><!DOCTYPE svg PUBLIC "-//W3C//DTD SVG 1.1//EN" "http://www.w3.org/Graphics/SVG/1.1/DTD/svg11.dtd"><svg t="1543826620485" class="icon" style="" viewBox="0 0 1024 1024" version="1.1" xmlns="http://www.w3.org/2000/svg" p-id="1951" xmlns:xlink="http://www.w3.org/1999/xlink" width="200" height="200"><defs><style type="text/css"></style></defs><path d="M564.010667 298.666667l-42.666667-170.666667h-18.688l-42.666667 170.666667h104.021334zM576 384h-128v85.333333h128v-85.333333z m-213.333333 0H128v490.752c0 11.584 9.664 21.248 21.482667 21.248h725.034666A21.333333 21.333333 0 0 0 896 874.752V384H661.333333v128a42.666667 42.666667 0 0 1-42.666666 42.666667H405.333333a42.666667 42.666667 0 0 1-42.666666-42.666667v-128z m52.010666-256h-155.52l-99.541333 170.666667h212.394667l42.666666-170.666667z m194.645334 0l42.666666 170.666667h212.394667L764.8 128h-155.52z m365.824 191.210667c3.925333 6.442667 6.186667 14.016 6.186666 22.122666v533.418667A106.666667 106.666667 0 0 1 874.517333 981.333333H149.482667C90.56 981.333333 42.666667 933.504 42.666667 874.752V341.333333c0-8.106667 2.261333-15.68 6.186666-22.122666l148.949334-255.36A42.666667 42.666667 0 0 1 234.666667 42.666667h554.666666a42.666667 42.666667 0 0 1 36.864 21.162666l148.949334 255.36z" fill="" p-id="1952"></path></svg>