<?xml version="1.0" standalone="no"?>
<!DOCTYPE svg PUBLIC "-//W3C//DTD SVG 1.1//EN" "http://www.w3.org/Graphics/SVG/1.1/DTD/svg11.dtd">
<svg t="1543480683099"
  class="icon" style="" viewBox="0 0 1024 1024" version="1.1" xmlns="http://www.w3.org/2000/svg" p-id="6695"
  xmlns:xlink="http://www.w3.org/1999/xlink" width="200" height="200">
  <defs>
    <style type="text/css"></style>
  </defs>
  <path d="M364.2 532H94.5c-29.8 0-54.1-24.3-54.1-54.1V208.3c0-29.8 24.3-54.1 54.1-54.1h269.7c29.8 0 54.1 24.3 54.1 54.1V478c0 29.8-24.3 54-54.1 54z m-243.8-80h217.9V234.2H120.4V452zM738.8 532c-13.9 0-27.7-5.3-38.3-15.8L509.8 325.5c-10.2-10.2-15.8-23.8-15.8-38.3 0-14.5 5.6-28.1 15.8-38.3L700.5 58.3c21.1-21.1 55.4-21.1 76.5 0L967.7 249c21.1 21.1 21.1 55.4 0 76.5L777 516.2c-10.5 10.6-24.4 15.8-38.2 15.8zM584.7 287.3l154.1 154.1 154.1-154.1-154.1-154.1-154.1 154.1zM911.2 269zM817.8 981.5H548.1c-29.8 0-54.1-24.3-54.1-54.1V657.7c0-29.8 24.3-54.1 54.1-54.1h269.7c29.8 0 54.1 24.3 54.1 54.1v269.7c0 29.8-24.3 54.1-54.1 54.1z m-243.8-80h217.9V683.6H574v217.9zM364.2 981.5H94.5c-29.8 0-54.1-24.3-54.1-54.1V657.7c0-29.8 24.3-54.1 54.1-54.1h269.7c29.8 0 54.1 24.3 54.1 54.1v269.7c0 29.8-24.3 54.1-54.1 54.1z m-243.8-80h217.9V683.6H120.4v217.9z"
    fill="" p-id="6696"></path>
</svg>