<?xml version="1.0" standalone="no"?>
<!DOCTYPE svg PUBLIC "-//W3C//DTD SVG 1.1//EN" "http://www.w3.org/Graphics/SVG/1.1/DTD/svg11.dtd">

<svg t="1543476033829"
  class="icon" style="" viewBox="0 0 1024 1024" version="1.1" xmlns="http://www.w3.org/2000/svg" p-id="1910"
  xmlns:xlink="http://www.w3.org/1999/xlink" width="200" height="200">
  <defs>
    <style type="text/css"></style>
  </defs>
  <path d="M557.511111 961.422222l227.555556-301.511111c17.066667-22.755556 11.377778-62.577778-11.377778-79.644444-11.377778-5.688889-22.755556-11.377778-34.133333-11.377778H284.444444c-34.133333 0-56.888889 22.755556-56.888888 56.888889 0 11.377778 5.688889 22.755556 11.377777 34.133333l227.555556 301.511111c17.066667 22.755556 56.888889 28.444444 79.644444 11.377778 5.688889 0 5.688889-5.688889 11.377778-11.377778z"
    fill="#cccccc" p-id="1911"></path>
  <path d="M557.511111 62.577778l227.555556 301.511111c17.066667 22.755556 11.377778 62.577778-11.377778 79.644444-11.377778 5.688889-22.755556 11.377778-34.133333 11.377778H284.444444c-34.133333 0-56.888889-22.755556-56.888888-56.888889 0-11.377778 5.688889-22.755556 11.377777-34.133333l227.555556-301.511111c17.066667-22.755556 56.888889-28.444444 79.644444-11.377778 5.688889 0 5.688889 5.688889 11.377778 11.377778z"
    fill="#fb0008" p-id="1912"></path>
</svg>